<!DOCTYPE svg PUBLIC "-//W3C//DTD SVG 1.1//EN" "http://www.w3.org/Graphics/SVG/1.1/DTD/svg11.dtd">
<!-- Uploaded to: SVG Repo, www.svgrepo.com, Transformed by: SVG Repo Mixer Tools -->
<svg fill="#ff206e" height="800px" width="800px" version="1.1" id="Capa_1" xmlns="http://www.w3.org/2000/svg" xmlns:xlink="http://www.w3.org/1999/xlink" viewBox="0 0 302.805 302.805" xml:space="preserve" stroke="#ff206e">
<g id="SVGRepo_bgCarrier" stroke-width="0"/>
<g id="SVGRepo_tracerCarrier" stroke-linecap="round" stroke-linejoin="round"/>
<g id="SVGRepo_iconCarrier"> <g> <g> <path d="M252.719,58.932l-38.85-7.402h0.001c-9.817-1.871-16.943-10.482-16.943-20.477V14.997c0-8.27-6.728-14.997-14.996-14.997 h-61.057c-8.269,0-14.996,6.728-14.996,14.997v16.056c0,9.994-7.125,18.605-16.941,20.477l-38.852,7.402 C25.829,63.555,8.95,85.607,10.823,110.229l13.596,178.718c0.593,7.771,7.161,13.857,14.954,13.857h224.059 c7.795,0,14.362-6.088,14.953-13.858l13.597-178.717C293.854,85.607,276.976,63.555,252.719,58.932z M277.024,109.091 l-13.593,178.714l-32.772,0l-7.243-34.654l25.274-110.566c0.923-4.037-1.603-8.06-5.641-8.982 c-4.038-0.926-8.06,1.603-8.982,5.641l-25.64,112.165c-0.241,1.054-0.251,2.147-0.03,3.205l6.937,33.192l-127.866,0.002 l6.937-33.194c0.221-1.058,0.211-2.151-0.03-3.205l-25.64-112.165c-0.923-4.038-4.941-6.565-8.982-5.641 c-4.038,0.923-6.563,4.945-5.641,8.982l25.274,110.566l-7.243,34.656l-32.768,0L25.78,109.091 c-1.294-17.003,10.362-32.231,27.112-35.425l38.852-7.402c16.881-3.218,29.134-18.026,29.134-35.211L120.874,15l61.053-0.003 v16.056c0,17.186,12.253,31.993,29.135,35.211l38.85,7.402C266.662,76.859,278.318,92.088,277.024,109.091z"/> </g> <g> <path d="M151.402,89.462c-3.313,0-6,2.687-6,6v129.945c0,3.313,2.687,6,6,6s6-2.687,6-6V95.462 C157.402,92.148,154.716,89.462,151.402,89.462z"/> </g> </g> </g>
</svg>