<!DOCTYPE svg PUBLIC "-//W3C//DTD SVG 1.1//EN" "http://www.w3.org/Graphics/SVG/1.1/DTD/svg11.dtd">
<!-- Uploaded to: SVG Repo, www.svgrepo.com, Transformed by: SVG Repo Mixer Tools -->
<svg fill="#ff206e" version="1.1" id="Capa_1" xmlns="http://www.w3.org/2000/svg" xmlns:xlink="http://www.w3.org/1999/xlink" width="800px" height="800px" viewBox="0 0 141.962 141.962" xml:space="preserve" stroke="#ff206e">
<g id="SVGRepo_bgCarrier" stroke-width="0"/>
<g id="SVGRepo_tracerCarrier" stroke-linecap="round" stroke-linejoin="round"/>
<g id="SVGRepo_iconCarrier"> <g> <path d="M116.57,1.352C115.979,0.505,115.035,0,114,0H27.964c-1.023,0-1.976,0.505-2.57,1.352 c-0.5,0.725-49.478,73.398-9.852,139.112c0.569,0.926,1.583,1.498,2.676,1.498h38.14c1.41,0,2.646-0.938,3.002-2.289 c0.429-1.608,7.712-28.668,11.615-49.603c3.903,20.935,11.186,47.994,11.624,49.603c0.365,1.352,1.602,2.289,3.008,2.289h38.137 c1.102,0,2.106-0.572,2.686-1.498C166.038,74.75,117.069,2.077,116.57,1.352z M29.659,6.235h82.643 c2.04,3.233,7.301,12.102,12.33,24.533c-8.829,3.848-40.955,18.496-53.651,33.387C58.297,49.271,26.161,34.617,17.344,30.769 C22.358,18.343,27.613,9.469,29.659,6.235z M53.952,135.727H19.996c-20.661-35.609-14.188-73.368-4.89-99.122 c9.085,3.991,41.744,19.038,52.09,32.872c-0.013,0.122-0.064,0.238-0.058,0.365C67.881,82.021,56.72,125.229,53.952,135.727z M121.989,135.727H88.006c-2.765-10.498-13.932-53.706-13.177-65.885c0.006-0.121-0.052-0.23-0.064-0.359 c10.343-13.828,43.005-28.88,52.09-32.872C136.159,62.359,142.632,100.112,121.989,135.727z M34.817,126.411 c0.99,1.406,0.661,3.344-0.73,4.336c-0.548,0.39-1.172,0.578-1.809,0.578c-0.971,0-1.939-0.444-2.536-1.309 c-16.499-23.23-11.125-62.116-10.894-63.76c0.244-1.711,1.851-2.856,3.529-2.646c1.702,0.244,2.886,1.827,2.643,3.529 C24.965,67.52,19.777,105.221,34.817,126.411z M112.216,130.016c-0.608,0.864-1.57,1.309-2.539,1.309 c-0.627,0-1.26-0.177-1.809-0.578c-1.4-0.992-1.723-2.947-0.73-4.336c15.071-21.215,9.858-58.876,9.804-59.266 c-0.243-1.702,0.938-3.279,2.643-3.528c1.662-0.21,3.276,0.929,3.532,2.646C123.348,67.9,128.73,106.792,112.216,130.016z"/> </g> </g>
</svg>